<svg xmlns="http://www.w3.org/2000/svg" version="1.1" xmlns:xlink="http://www.w3.org/1999/xlink" viewBox="0 0 4.93717785208439 4.373311579232264"><g transform="matrix(1,0,0,1,1.487082578385945,1.8171557896161321)"><rect width="4.93717785208439" height="4.93717785208439" x="-1.4870825783859447" y="-2.099088926042195" fill="#fcf7ee"></rect><g transform="matrix(1,0,0,1,0,0)"><g clip-path="url(#SvgjsClipPath1001)"><path d=" M -1.1 0.36949999999999994 L -0.061016406496251285 -1.4300732112301873 L 2.016992770552841 -1.4300732112301873 L 3.055910379705512 0.36949999999999994 L 2.016992770552841 2.169073211230187 L -0.061016406496251285 2.169073211230187 L -1.1 0.36949999999999994 Z" fill="#769687" transform="matrix(1,0,0,1,0,0)" fill-rule="nonzero"></path></g></g><g transform="matrix(1,0,0,1,0,0)"><path d=" M 0.628 0.14400000000000002 Q 0.721 0.14400000000000002 0.789 0.10599999999999998 L 0.801 0.125 Q 0.738 0.15900000000000003 0.666 0.16399999999999992 Q 0.611 0.22999999999999998 0.5720000000000001 0.33899999999999997 Q 0.533 0.448 0.533 0.5549999999999999 Q 0.533 0.662 0.5720000000000001 0.705 Q 0.611 0.748 0.677 0.748 Q 0.771 0.748 0.851 0.65 Q 0.91 0.574 0.9465 0.478 Q 0.983 0.382 0.992 0.3025 Q 1.0010000000000001 0.22299999999999998 1.0010000000000001 0.14649999999999996 Q 1.0010000000000001 0.06999999999999995 0.985 0.0050000000000000044 L 1.006 0 Q 1.0230000000000001 0.06499999999999995 1.0230000000000001 0.14400000000000002 Q 1.0230000000000001 0.22299999999999998 1.0135 0.305 Q 1.004 0.387 0.9665 0.486 Q 0.929 0.585 0.868 0.663 Q 0.744 0.823 0.594 0.823 Q 0.508 0.823 0.467 0.7665 Q 0.426 0.71 0.426 0.631 Q 0.426 0.552 0.4495 0.471 Q 0.47300000000000003 0.38999999999999996 0.51 0.32899999999999996 Q 0.5730000000000001 0.22299999999999998 0.631 0.16499999999999992 Q 0.603 0.16499999999999992 0.543 0.15900000000000003 L 0.426 0.15200000000000002 Q 0.28600000000000003 0.15200000000000002 0.20700000000000002 0.22150000000000003 Q 0.128 0.291 0.128 0.415 Q 0.128 0.46199999999999997 0.14400000000000002 0.49949999999999994 Q 0.16 0.5369999999999999 0.1805 0.5569999999999999 Q 0.201 0.577 0.227 0.591 Q 0.259 0.609 0.289 0.616 L 0.28400000000000003 0.637 Q 0.264 0.637 0.2285 0.617 Q 0.193 0.597 0.1685 0.5745 Q 0.14400000000000002 0.552 0.1255 0.51 Q 0.107 0.46799999999999997 0.107 0.415 Q 0.107 0.284 0.193 0.20699999999999996 Q 0.279 0.13 0.426 0.13 Q 0.46 0.13 0.546 0.137 Q 0.587 0.14400000000000002 0.628 0.14400000000000002 M 1.47499072265625 0.854 Q 1.41099072265625 0.892 1.33699072265625 0.892 Q 1.26299072265625 0.892 1.22399072265625 0.8685 Q 1.18499072265625 0.845 1.18499072265625 0.8095 Q 1.18499072265625 0.774 1.21349072265625 0.7525 Q 1.24199072265625 0.731 1.29899072265625 0.731 Q 1.37699072265625 0.731 1.43899072265625 0.789 Q 1.45099072265625 0.752 1.45899072265625 0.707 L 1.46499072265625 0.6699999999999999 L 1.42299072265625 0.6699999999999999 L 1.42299072265625 0.648 L 1.46899072265625 0.648 L 1.54499072265625 0.21399999999999997 Q 1.5499907226562502 0.17699999999999994 1.55899072265625 0.15400000000000003 Q 1.35199072265625 0.16999999999999993 1.23949072265625 0.2415 Q 1.12699072265625 0.313 1.12699072265625 0.429 Q 1.12699072265625 0.481 1.16299072265625 0.517 Q 1.18799072265625 0.5409999999999999 1.22899072265625 0.5535 Q 1.26999072265625 0.566 1.2964907226562499 0.5675 Q 1.32299072265625 0.569 1.32499072265625 0.567 L 1.32499072265625 0.588 Q 1.20699072265625 0.588 1.14999072265625 0.532 Q 1.10799072265625 0.493 1.10799072265625 0.429 Q 1.10799072265625 0.302 1.22699072265625 0.22550000000000003 Q 1.34599072265625 0.14900000000000002 1.56699072265625 0.134 Q 1.61399072265625 0.029000000000000026 1.7419907226562499 0.029000000000000026 L 1.7419907226562499 0.05499999999999994 Q 1.71699072265625 0.05799999999999994 1.70749072265625 0.07499999999999996 Q 1.69799072265625 0.09199999999999997 1.6909907226562502 0.13 Q 1.77399072265625 0.131 1.83349072265625 0.15049999999999997 Q 1.8929907226562501 0.16999999999999993 1.92399072265625 0.20199999999999996 Q 1.98299072265625 0.26299999999999996 1.98299072265625 0.345 Q 1.98299072265625 0.408 1.9594907226562501 0.45949999999999996 Q 1.93599072265625 0.511 1.89999072265625 0.544 Q 1.86399072265625 0.577 1.8119907226562502 0.601 Q 1.7259907226562499 0.642 1.6049907226562499 0.659 L 1.6049907226562499 0.661 Q 1.58399072265625 0.778 1.49299072265625 0.842 Q 1.5339907226562501 0.879 1.58299072265625 0.9 Q 1.63199072265625 0.921 1.70899072265625 0.921 L 1.70899072265625 0.9430000000000001 Q 1.62599072265625 0.9430000000000001 1.5724907226562501 0.9195 Q 1.51899072265625 0.896 1.47499072265625 0.854 M 1.9569907226562502 0.345 Q 1.9569907226562502 0.257 1.8904907226562502 0.20399999999999996 Q 1.8239907226562502 0.15100000000000002 1.68899072265625 0.14900000000000002 Q 1.65199072265625 0.421 1.60999072265625 0.636 Q 1.9569907226562502 0.586 1.9569907226562502 0.345 M 1.36999072265625 0.7655 Q 1.34099072265625 0.75 1.29949072265625 0.75 Q 1.25799072265625 0.75 1.23349072265625 0.7655 Q 1.20899072265625 0.781 1.20899072265625 0.8085 Q 1.20899072265625 0.836 1.24099072265625 0.8545 Q 1.27299072265625 0.873 1.31799072265625 0.873 Q 1.3629907226562499 0.873 1.38949072265625 0.86 Q 1.41599072265625 0.847 1.43099072265625 0.8109999999999999 Q 1.39899072265625 0.781 1.36999072265625 0.7655" fill="#fcf7ee" fill-rule="nonzero"></path></g><g transform="matrix(1,0,0,1,0,0)"></g></g><defs><clipPath id="SvgjsClipPath1001"><path d=" M -1.1 -1.4300732112301873 h 4.1630126953125 v 3.5991464224603744 h -4.1630126953125 Z"></path></clipPath></defs></svg>